HIERARCHY
ROOT joint_Root
{
	OFFSET 0.0 0.0 0.0
	CHANNELS 6 Xposition Yposition Zposition Zrotation Xrotation Yrotation 
	JOINT Hips
	{
		OFFSET 4.5925 91.4895 -427.239
		CHANNELS 6 Xposition Yposition Zposition Zrotation Xrotation Yrotation 
		JOINT Spine
		{
			OFFSET 15.7357 0.0 0.0
			CHANNELS 6 Xposition Yposition Zposition Zrotation Xrotation Yrotation 
			JOINT Chest
			{
				OFFSET 8.98455 -0.406207 0.0
				CHANNELS 6 Xposition Yposition Zposition Zrotation Xrotation Yrotation 
				JOINT Neck
				{
					OFFSET 16.3773 0.0 0.0
					CHANNELS 6 Xposition Yposition Zposition Zrotation Xrotation Yrotation 
					JOINT Head
					{
						OFFSET 6.45672 0.0 0.0
						CHANNELS 6 Xposition Yposition Zposition Zrotation Xrotation Yrotation 
						End Site
						{
							OFFSET 0.0 0.0 0.0
						}
					}
				}
				JOINT Shoulder_L
				{
					OFFSET 12.9942 -0.242716 4.98039
					CHANNELS 6 Xposition Yposition Zposition Zrotation Xrotation Yrotation 
					JOINT UpperArm_L
					{
						OFFSET 5.34809 0.0 0.0
						CHANNELS 6 Xposition Yposition Zposition Zrotation Xrotation Yrotation 
						JOINT LowerArm_L
						{
							OFFSET 24.3286 1.87007e-05 0.0
							CHANNELS 6 Xposition Yposition Zposition Zrotation Xrotation Yrotation 
							JOINT Hand_L
							{
								OFFSET 22.2916 0.0 0.0
								CHANNELS 6 Xposition Yposition Zposition Zrotation Xrotation Yrotation 
								End Site
								{
									OFFSET 0.0 0.0 0.0
								}
							}
						}
					}
				}
				JOINT Shoulder_R
				{
					OFFSET 12.9945 -0.242716 -4.98039
					CHANNELS 6 Xposition Yposition Zposition Zrotation Xrotation Yrotation 
					JOINT UpperArm_R
					{
						OFFSET -5.34813 0.0 0.0
						CHANNELS 6 Xposition Yposition Zposition Zrotation Xrotation Yrotation 
						JOINT LowerArm_R
						{
							OFFSET -24.3289 0.000322201 0.0
							CHANNELS 6 Xposition Yposition Zposition Zrotation Xrotation Yrotation 
							JOINT Hand_R
							{
								OFFSET -22.2915 -0.000108084 0.0
								CHANNELS 6 Xposition Yposition Zposition Zrotation Xrotation Yrotation 
								End Site
								{
									OFFSET 0.0 0.0 0.0
								}
							}
						}
					}
				}
			}
		}
		JOINT UpperLeg_L
		{
			OFFSET -2.19248 -6.46944 0.0
			CHANNELS 6 Xposition Yposition Zposition Zrotation Xrotation Yrotation 
			JOINT LowerLeg_L
			{
				OFFSET 39.0811 0.0 -1.23785e-05
				CHANNELS 6 Xposition Yposition Zposition Zrotation Xrotation Yrotation 
				JOINT Foot_L
				{
					OFFSET 40.9854 0.0 -1.26872e-05
					CHANNELS 6 Xposition Yposition Zposition Zrotation Xrotation Yrotation 
					JOINT Toes_L
					{
						OFFSET 11.7543 0.0 0.0
						CHANNELS 6 Xposition Yposition Zposition Zrotation Xrotation Yrotation 
						End Site
						{
							OFFSET 0.0 0.0 0.0
						}
					}
				}
			}
		}
		JOINT UpperLeg_R
		{
			OFFSET -2.19251 6.46944 0.0
			CHANNELS 6 Xposition Yposition Zposition Zrotation Xrotation Yrotation 
			JOINT LowerLeg_R
			{
				OFFSET -39.0811 -0.00228153 -0.0401928
				CHANNELS 6 Xposition Yposition Zposition Zrotation Xrotation Yrotation 
				JOINT Foot_R
				{
					OFFSET -40.9854 0.0 0.0
					CHANNELS 6 Xposition Yposition Zposition Zrotation Xrotation Yrotation 
					JOINT Toes_R
					{
						OFFSET -11.7543 0.0 0.0
						CHANNELS 6 Xposition Yposition Zposition Zrotation Xrotation Yrotation 
						End Site
						{
							OFFSET 0.0 0.0 0.0
						}
					}
				}
			}
		}
	}
}
MOTION
Frames:	5
Frame Time:	0.0333333
0.000000 0.000000 0.000000 0.000000 0.000000 -0.000000 -1.357400 90.457800 -5.360420 88.585700 -0.780540 12.797400 15.735700 0.000005 -0.000001 88.546200 75.525700 -88.917300 8.984550 -0.406207 -0.000000 21.172100 -0.759344 -0.603242 16.377300 -0.000001 -0.000001 8.540050 -3.291480 0.906712 6.456720 -0.000001 -0.000000 -8.411010 -3.361750 0.128429 12.994200 -0.242716 4.980390 -91.199200 6.498300 -79.520700 5.348090 -0.000007 -0.000001 -56.476700 34.682600 -30.001600 24.328600 0.000019 0.000005 10.583300 21.812200 -26.695600 22.291600 -0.000001 0.000005 10.331600 5.260740 1.147140 12.994500 -0.242716 -4.980390 89.272100 10.801600 -86.121800 -5.348130 -0.000001 -0.000004 -55.526400 35.464000 -26.596300 -24.328900 0.000322 -0.000009 3.830430 7.191550 -28.145900 -22.291500 -0.000108 -0.000004 16.555100 5.408470 -3.214660 -2.192480 -6.469440 -0.000000 -172.823000 -12.691400 -3.461860 39.081100 -0.000007 -0.000012 -0.172906 0.253299 34.318400 40.985400 -0.000006 -0.000013 -0.262005 4.988740 -67.635000 11.754300 -0.000000 0.000003 -0.000191 -0.001780 -16.644800 -2.192510 6.469440 -0.000001 174.570000 23.636000 179.096000 -39.081100 -0.002282 -0.040193 -0.194014 0.304906 32.907800 -40.985400 0.000008 0.000006 4.211360 13.310200 -68.642800 -11.754300 -0.000006 -0.000006 -0.002895 -0.039405 -18.175600
0.000000 0.000000 0.000000 0.000000 0.000000 -0.000000 -1.358170 90.468000 -5.355080 88.576300 -0.857646 12.767300 15.735700 0.000005 -0.000001 88.559900 75.566800 -88.943100 8.984550 -0.406207 -0.000000 21.090000 -0.751829 -0.629301 16.377300 -0.000001 -0.000001 8.484770 -3.285220 0.907386 6.456720 -0.000001 -0.000000 -8.496780 -3.351740 0.145159 12.994200 -0.242716 4.980390 -91.189000 6.441120 -79.518500 5.348090 -0.000007 -0.000001 -56.543500 34.604100 -29.867400 24.328600 0.000019 0.000005 10.594000 21.932700 -26.599000 22.291600 -0.000001 0.000005 10.257700 5.259230 1.187720 12.994500 -0.242716 -4.980390 89.263200 10.741400 -86.052700 -5.348130 -0.000001 -0.000004 -55.751700 35.171100 -26.323600 -24.328900 0.000322 -0.000009 4.019710 7.277550 -29.025000 -22.291500 -0.000108 -0.000004 16.731500 5.410940 -3.296550 -2.192480 -6.469440 -0.000000 -172.800000 -12.750500 -3.445660 39.081100 -0.000007 -0.000012 -0.176559 0.259092 34.272900 40.985400 -0.000006 -0.000013 -0.279921 4.944160 -67.625600 11.754300 -0.000000 0.000003 -0.000195 -0.001813 -16.646000 -2.192510 6.469440 -0.000001 174.610000 23.588800 179.083000 -39.081100 -0.002282 -0.040193 -0.191067 0.300984 32.852900 -40.985400 0.000008 0.000006 4.218600 13.347400 -68.615900 -11.754300 -0.000006 -0.000006 -0.002812 -0.038462 -18.137200
0.000000 0.000000 0.000000 0.000000 0.000000 -0.000000 -1.365750 90.462800 -5.343010 88.564600 -0.897929 12.729800 15.735700 0.000005 -0.000001 88.495100 75.611200 -88.891200 8.984550 -0.406207 -0.000000 21.000400 -0.782729 -0.650105 16.377300 -0.000001 -0.000001 8.424480 -3.266760 0.885942 6.456720 -0.000001 -0.000000 -8.564740 -3.336590 0.145432 12.994200 -0.242716 4.980390 -91.176700 6.376210 -79.521700 5.348090 -0.000007 -0.000001 -56.603500 34.504000 -29.723300 24.328600 0.000019 0.000005 10.567700 21.987000 -26.486800 22.291600 -0.000001 0.000005 10.284500 5.258970 1.194330 12.994500 -0.242716 -4.980390 89.257800 10.696700 -86.007500 -5.348130 -0.000001 -0.000004 -56.120700 34.593000 -25.862600 -24.328900 0.000322 -0.000009 4.384740 7.529340 -30.340700 -22.291500 -0.000108 -0.000004 17.013100 5.415540 -3.449300 -2.192480 -6.469440 -0.000000 -172.787000 -12.754700 -3.491160 39.081100 -0.000007 -0.000012 -0.174931 0.256410 34.303400 40.985400 -0.000006 -0.000013 -0.289615 4.940000 -67.645200 11.754300 -0.000000 0.000003 -0.000188 -0.001756 -16.643900 -2.192510 6.469440 -0.000001 174.640000 23.567700 179.037000 -39.081100 -0.002282 -0.040193 -0.196241 0.308759 32.872900 -40.985400 0.000008 0.000006 4.225030 13.362000 -68.632000 -11.754300 -0.000006 -0.000006 -0.002816 -0.038498 -18.138700
0.000000 0.000000 0.000000 0.000000 0.000000 -0.000000 -1.364060 90.465900 -5.321940 88.580700 -0.930233 12.751100 15.735700 0.000005 -0.000001 88.505400 75.637800 -88.922500 8.984550 -0.406207 -0.000000 20.947200 -0.778651 -0.693446 16.377300 -0.000001 -0.000001 8.414020 -3.262970 0.905842 6.456720 -0.000001 -0.000000 -8.665480 -3.323970 0.113502 12.994200 -0.242716 4.980390 -91.158700 6.300060 -79.556900 5.348090 -0.000007 -0.000001 -56.667000 34.391700 -29.626300 24.328600 0.000019 0.000005 10.521300 22.024800 -26.346900 22.291600 -0.000001 0.000005 10.387500 5.260090 1.164680 12.994500 -0.242716 -4.980390 89.237500 10.663300 -85.886100 -5.348130 -0.000001 -0.000004 -56.631000 33.730600 -25.220500 -24.328900 0.000322 -0.000009 4.877140 7.783980 -32.216400 -22.291500 -0.000108 -0.000004 17.400800 5.419200 -3.571630 -2.192480 -6.469440 -0.000000 -172.780000 -12.795500 -3.428310 39.081100 -0.000007 -0.000012 -0.175964 0.258196 34.275200 40.985400 -0.000006 -0.000013 -0.293395 4.949790 -67.651600 11.754300 -0.000000 0.000003 -0.000183 -0.001722 -16.642700 -2.192510 6.469440 -0.000001 174.618000 23.538700 179.078000 -39.081100 -0.002282 -0.040193 -0.193249 0.304250 32.862500 -40.985400 0.000008 0.000006 4.231420 13.387300 -68.643900 -11.754300 -0.000006 -0.000006 -0.002890 -0.039355 -18.173600
0.000000 0.000000 0.000000 0.000000 0.000000 -0.000000 -1.380820 90.461000 -5.302260 88.548400 -0.940159 12.733900 15.735700 0.000005 -0.000001 88.467400 75.671000 -88.885600 8.984550 -0.406207 -0.000000 20.880200 -0.795494 -0.692935 16.377300 -0.000001 -0.000001 8.375390 -3.223230 0.863451 6.456720 -0.000001 -0.000000 -8.683950 -3.291190 0.128312 12.994200 -0.242716 4.980390 -91.151800 6.260690 -79.554200 5.348090 -0.000007 -0.000001 -56.631800 34.285000 -29.616400 24.328600 0.000019 0.000005 10.503400 22.085700 -26.247500 22.291600 -0.000001 0.000005 10.426100 5.259490 1.180610 12.994500 -0.242716 -4.980390 89.220700 10.629600 -85.782500 -5.348130 -0.000001 -0.000004 -57.084900 32.758900 -24.522600 -24.328900 0.000322 -0.000009 5.465180 7.966830 -34.621800 -22.291500 -0.000108 -0.000004 18.098400 5.421210 -3.639460 -2.192480 -6.469440 -0.000000 -172.755000 -12.763500 -3.447040 39.081100 -0.000007 -0.000012 -0.172315 0.252465 34.315100 40.985400 -0.000006 -0.000013 -0.307882 4.911910 -67.690400 11.754300 -0.000000 0.000003 -0.000185 -0.001732 -16.643000 -2.192510 6.469440 -0.000001 174.661000 23.538300 179.072000 -39.081100 -0.002282 -0.040193 -0.196346 0.308991 32.867000 -40.985400 0.000008 0.000006 4.231560 13.362400 -68.659500 -11.754300 -0.000006 -0.000006 -0.002894 -0.039401 -18.175500
